HIERARCHY
ROOT Hips
{
 OFFSET 0.000000 0.000000 0.000000
 CHANNELS 6 Xposition Yposition Zposition Yrotation Xrotation Zrotation
 JOINT Chest
 {
  OFFSET 0.000000 10.388337 0.005184
  CHANNELS 3 Yrotation Xrotation Zrotation
  JOINT Chest2
  {
   OFFSET 0.000000 10.458247 -0.010579
   CHANNELS 3 Yrotation Xrotation Zrotation
   JOINT Chest3
   {
    OFFSET 0.000000 10.415828 0.000000
    CHANNELS 3 Yrotation Xrotation Zrotation
    JOINT Chest4
    {
     OFFSET 0.000000 10.405206 0.000000
     CHANNELS 3 Yrotation Xrotation Zrotation
     JOINT Neck
     {
      OFFSET 0.000000 15.720090 0.000000
      CHANNELS 3 Yrotation Xrotation Zrotation
      JOINT Head
      {
       OFFSET 0.000000 9.732643 -0.022378
       CHANNELS 3 Yrotation Xrotation Zrotation
       End Site
       {
        OFFSET 0.000000 18.603619 -0.011814
       }
      }
     }
     JOINT RightCollar
     {
      OFFSET -3.167735 10.388953 0.000000
      CHANNELS 3 Yrotation Xrotation Zrotation
      JOINT RightShoulder
      {
       OFFSET -14.584825 0.000000 0.000000
       CHANNELS 3 Yrotation Xrotation Zrotation
       JOINT RightElbow
       {
        OFFSET 0.000000 -31.921689 0.000000
        CHANNELS 3 Yrotation Xrotation Zrotation
        JOINT RightWrist
        {
         OFFSET 0.000000 -25.835217 0.000000
         CHANNELS 3 Yrotation Xrotation Zrotation
         End Site
         {
          OFFSET 0.000000 -19.128920 0.000000
         }
        }
       }
      }
     }
     JOINT LeftCollar
     {
      OFFSET 3.167735 10.388953 0.000000
      CHANNELS 3 Yrotation Xrotation Zrotation
      JOINT LeftShoulder
      {
       OFFSET 14.584825 0.000000 0.000000
       CHANNELS 3 Yrotation Xrotation Zrotation
       JOINT LeftElbow
       {
        OFFSET 0.000000 -31.921689 0.000000
        CHANNELS 3 Yrotation Xrotation Zrotation
        JOINT LeftWrist
        {
         OFFSET 0.000000 -25.835217 0.000000
         CHANNELS 3 Yrotation Xrotation Zrotation
         End Site
         {
          OFFSET 0.000000 -19.128920 0.000000
         }
        }
       }
      }
     }
    }
   }
  }
 }
 JOINT RightHip
 {
  OFFSET -8.403278 -0.025659 -0.002592
  CHANNELS 3 Yrotation Xrotation Zrotation
  JOINT RightKnee
  {
   OFFSET 0.000000 -44.040977 0.002477
   CHANNELS 3 Yrotation Xrotation Zrotation
   JOINT RightAnkle
   {
    OFFSET 0.000000 -42.951162 0.004189
    CHANNELS 3 Yrotation Xrotation Zrotation
    JOINT RightToe
    {
     OFFSET 0.000000 -5.494238 12.197485
     CHANNELS 3 Yrotation Xrotation Zrotation
     End Site
     {
      OFFSET 0.000000 -1.538716 6.371628
     }
    }
   }
  }
 }
 JOINT LeftHip
 {
  OFFSET 8.403278 -0.025659 -0.002592
  CHANNELS 3 Yrotation Xrotation Zrotation
  JOINT LeftKnee
  {
   OFFSET 0.000000 -44.040977 0.002477
   CHANNELS 3 Yrotation Xrotation Zrotation
   JOINT LeftAnkle
   {
    OFFSET 0.000000 -42.951162 0.004189
    CHANNELS 3 Yrotation Xrotation Zrotation
    JOINT LeftToe
    {
     OFFSET 0.000000 -5.494238 12.197485
     CHANNELS 3 Yrotation Xrotation Zrotation
     End Site
     {
      OFFSET 0.000000 -1.538716 6.371628
     }
    }
   }
  }
 }
}
MOTION
Frames: 11
Frame Time: 0.008333
42.712167 113.874442 594.876510 131.894338 -3.178639 -2.184627 -2.788631 -1.190594 -1.468655 -0.086386 -0.001838 -0.041977 -0.154134 -0.003324 -0.074900 -3.515611 -0.126652 -1.710464 -1.478556 18.902762 5.189123 -4.330438 -0.406644 9.964697 -3.322101 -2.897022 -11.412853 -3.656749 -17.894972 -47.983306 -23.201010 -46.843751 37.995485 -6.950280 15.433077 2.145209 11.787343 -6.742282 22.474866 -2.205389 -23.329718 42.106782 -1.244027 -53.975063 -29.457004 -1.007468 -10.458239 4.670727 -5.346726 -15.448630 4.442411 7.928767 38.312098 6.879917 -1.275510 15.304800 11.162148 -1.104740 2.860196 -1.867673 5.975768 -2.789004 5.819612 13.210749 42.239181 9.660741 -31.958460 24.427868 -20.943116 -0.427449 1.132514 -0.540610
43.002245 113.303098 594.633541 131.650318 -3.250299 -1.656579 -2.585968 -1.358631 -1.797699 -0.077883 -0.002485 -0.045518 -0.139052 -0.004481 -0.081272 -3.271509 -0.158235 -1.915476 -1.658843 19.114753 5.227203 -4.653140 0.006709 10.076082 -3.640018 -2.319343 -11.069398 -4.528712 -18.029416 -47.458875 -24.492638 -46.077843 39.297284 -7.364690 14.331904 1.949297 11.999191 -6.244626 22.274180 -0.653653 -23.055230 42.029123 -0.854129 -54.722669 -29.858332 -0.920324 -11.143618 5.071388 -4.540540 -13.528519 3.821413 7.111958 34.818678 6.165227 -1.628462 15.108139 11.264077 -1.031768 3.280311 -1.636063 4.564713 -2.508418 5.189305 15.090131 42.787595 10.182897 -30.817477 22.617406 -19.869399 -0.642203 1.365568 -0.828859
43.308231 112.656238 594.382417 131.340396 -3.433744 -1.152575 -2.341294 -1.410945 -2.124806 -0.069009 -0.002790 -0.048174 -0.123294 -0.005026 -0.086074 -3.002804 -0.175787 -2.100593 -1.841814 19.316066 5.261308 -4.979680 0.400692 10.180695 -3.848552 -1.723732 -10.742211 -5.485825 -18.080643 -46.887023 -25.601714 -45.563718 40.306650 -7.828538 13.301999 1.771087 12.235379 -5.729640 22.178136 0.828640 -22.717292 41.767406 -0.455557 -55.436022 -30.114255 -0.831138 -11.798643 5.539558 -3.698463 -11.498810 3.289535 6.353673 31.336866 5.471614 -2.029156 14.976317 11.339805 -0.940696 3.597471 -1.430269 3.455260 -2.116818 4.549604 16.796098 43.309747 10.730087 -29.438920 20.543178 -18.689402 -0.859280 1.656420 -1.123972
43.622335 111.929791 594.142429 130.970770 -3.624510 -0.713793 -2.044707 -1.432902 -2.393993 -0.060932 -0.003408 -0.050553 -0.108930 -0.006131 -0.090378 -2.735308 -0.207006 -2.273022 -2.025037 19.518343 5.282122 -5.301893 0.795756 10.260057 -3.987539 -1.131463 -10.467717 -6.501579 -18.061521 -46.206093 -26.485841 -45.353388 41.010385 -8.287251 12.389321 1.618439 12.523355 -5.233039 22.166107 2.109468 -22.315241 41.347988 -0.037353 -56.032522 -30.194695 -0.743639 -12.396206 6.031286 -2.946940 -9.473202 2.902947 5.699539 27.901091 4.757798 -2.318495 14.897580 11.490471 -0.895032 3.844866 -1.297954 2.687016 -1.691163 3.970860 18.167817 43.792854 11.190311 -27.791737 18.188479 -17.568884 -1.002408 2.040436 -1.357989
43.949620 111.121884 593.909332 130.692258 -3.863106 -0.340913 -1.829476 -1.370056 -2.610827 -0.054383 -0.004612 -0.053128 -0.097260 -0.008285 -0.095017 -2.491324 -0.264201 -2.436253 -2.204887 19.727921 5.282065 -5.610518 1.202440 10.298887 -4.085558 -0.573699 -10.270645 -7.568652 -17.984637 -45.379834 -27.149383 -45.442752 41.453533 -8.693313 11.617685 1.507595 12.871895 -4.798439 22.215020 3.134969 -21.852613 40.847365 0.410999 -56.488879 -30.130026 -0.638505 -12.920273 6.503436 -2.522619 -7.427453 2.646805 5.163692 24.562532 3.982332 -2.385832 14.929785 11.785163 -0.898976 3.975676 -1.260023 2.070358 -1.196841 3.465739 19.336250 44.235359 11.634381 -26.128740 15.656052 -16.617158 -1.000404 2.425342 -1.504477
44.287087 110.231151 593.687200 130.526085 -4.136169 -0.034626 -1.708980 -1.234167 -2.776281 -0.049293 -0.006257 -0.056020 -0.088171 -0.011227 -0.100205 -2.276817 -0.340577 -2.590064 -2.378317 19.942523 5.258664 -5.899710 1.615794 10.292068 -4.185947 -0.098921 -10.165825 -8.662117 -17.823109 -44.398175 -27.640763 -45.796594 41.695394 -9.010633 11.001785 1.462162 13.268062 -4.460246 22.312484 3.939257 -21.332647 40.340866 0.903221 -56.839634 -30.001010 -0.502328 -13.373990 6.924863 -2.477373 -5.403037 2.503019 4.729714 21.388508 3.136123 -2.196619 15.010126 12.258185 -0.948999 4.042728 -1.321226 1.547367 -0.683371 3.046420 20.577417 44.645444 12.253418 -24.774460 13.093960 -15.663053 -0.967677 2.721047 -1.677712
44.638528 109.258110 593.472359 130.475782 -4.491635 0.209942 -1.688228 -0.987924 -2.901011 -0.045126 -0.008044 -0.059037 -0.080717 -0.014422 -0.105603 -2.084108 -0.421836 -2.731484 -2.544928 20.155834 5.214660 -6.170361 2.024182 10.245107 -4.335642 0.258010 -10.162404 -9.726206 -17.530035 -43.273594 -28.079235 -46.350120 41.847489 -9.229118 10.560534 1.467584 13.687349 -4.221690 22.452708 4.595959 -20.764264 39.865503 1.444720 -57.126191 -29.883578 -0.358950 -13.784023 7.290666 -2.783933 -3.387640 2.423299 4.353227 18.454402 2.264640 -1.760417 15.084809 12.867705 -1.020300 4.070897 -1.445694 1.105083 -0.129809 2.739611 22.029206 45.052414 13.130807 -23.911348 10.623281 -14.536404 -0.992875 2.871458 -1.960784
45.006528 108.205343 593.248129 130.570521 -5.021531 0.449524 -1.807287 -0.550438 -3.053198 -0.041225 -0.009724 -0.061820 -0.073736 -0.017426 -0.110578 -1.898375 -0.496941 -2.856310 -2.706056 20.357288 5.155947 -6.427765 2.408646 10.170073 -4.548959 0.479578 -10.246133 -10.698321 -17.071934 -42.050412 -28.613801 -47.006692 42.047036 -9.358758 10.291867 1.497148 14.099640 -4.073747 22.620782 5.170836 -20.150074 39.442754 2.067567 -57.381843 -29.860875 -0.256046 -14.161651 7.617744 -3.395656 -1.538214 2.276577 3.982926 16.257964 1.496467 -1.131057 15.034484 13.472983 -1.035081 3.923418 -1.543545 0.695461 0.550962 2.510182 23.629187 45.487797 14.189122 -23.411272 8.355303 -13.355193 -1.001950 2.830272 -2.263144
45.329053 107.064846 593.120569 130.308787 -5.098462 0.500452 -1.577617 -0.528581 -2.989769 -0.037193 -0.011173 -0.064103 -0.066522 -0.020016 -0.114662 -1.709207 -0.561061 -2.961910 -2.859231 20.529361 5.090535 -6.671441 2.737202 10.082287 -4.803603 0.548329 -10.376261 -11.550930 -16.446650 -40.793197 -29.328179 -47.667492 42.375602 -9.422709 10.154451 1.563555 14.481283 -4.025395 22.793963 5.709308 -19.479515 39.097876 2.817498 -57.637562 -30.012507 -0.213225 -14.492865 7.920580 -3.704866 -0.104871 2.350788 3.561449 13.794173 0.801225 -0.401449 15.241823 13.992132 -1.047634 3.835471 -1.584318 0.806558 0.729889 2.571523 25.246094 45.956601 15.334302 -22.820726 6.210304 -12.246236 -1.065232 2.795858 -2.541670
45.632712 105.846783 593.013120 130.036046 -5.127648 0.549806 -1.352691 -0.505446 -2.939116 -0.033044 -0.012495 -0.065876 -0.059100 -0.022378 -0.117837 -1.517081 -0.619389 -3.048465 -2.998284 20.654712 5.026255 -6.894034 2.977840 9.995704 -5.073725 0.461937 -10.511091 -12.296517 -15.697475 -39.553206 -30.226935 -48.272200 42.882994 -9.470206 10.114552 1.685949 14.831104 -4.089058 22.956616 6.235983 -18.751939 38.838364 3.691033 -57.912381 -30.353477 -0.208652 -14.775470 8.197044 -4.008741 1.148223 2.358652 3.199475 11.600244 0.298768 0.250615 15.265327 14.313198 -1.042116 3.835972 -1.513529 1.093869 0.807385 2.690801 26.833770 46.439948 16.571610 -22.188610 4.285634 -11.344296 -1.077329 2.700936 -2.738318
45.910443 104.558282 592.922930 129.750877 -5.099829 0.618175 -1.136187 -0.473106 -2.921469 -0.029055 -0.013911 -0.067345 -0.051964 -0.024909 -0.120466 -1.331132 -0.681475 -3.119046 -3.117690 20.722934 4.969339 -7.088222 3.111327 9.921077 -5.348480 0.240242 -10.621453 -12.961420 -14.902540 -38.355104 -31.275427 -48.781781 43.600546 -9.550033 10.174154 1.885217 15.164518 -4.266909 23.105502 6.772251 -17.978096 38.648085 4.638538 -58.225768 -30.852662 -0.209636 -15.015161 8.455193 -4.312891 2.205876 2.291952 2.985011 9.714850 -0.019639 0.680818 14.956512 14.369409 -1.033524 4.008663 -1.316138 1.554599 0.763123 2.838472 28.394757 46.929767 17.926502 -21.617432 2.527405 -10.543583 -1.077173 2.610835 -2.918212
